<mxfile host="app.diagrams.net" modified="2023-11-05T03:25:53.921Z" agent="Mozilla/5.0 (X11; Linux x86_64; rv:109.0) Gecko/20100101 Firefox/119.0" version="22.0.8" etag="7uMJllRkqFDImiVaMhlk" type="github">
  <diagram name="Page-1" id="qd4J4_fIXEJac39IV-NF">
    <mxGraphModel>
      <root>
        <mxCell id="0" />
        <mxCell id="1" parent="0" />
      </root>
    </mxGraphModel>
  </diagram>
</mxfile>
